<svg width="750" height="73" viewBox="0 0 750 73" fill="none" xmlns="http://www.w3.org/2000/svg">
<g clip-path="url(#clip0_1_391)">
<path d="M729 34.6243L721.001 26.625L718.376 29.25L729 39.8742L739.624 29.25L736.999 26.625L729 34.6243Z" fill="black"/>
<path d="M11.7207 38H9.8457V23.7812H11.7207V38ZM21.0273 35.1973C21.0273 34.709 20.8418 34.3314 20.4707 34.0645C20.1061 33.791 19.4648 33.5566 18.5469 33.3613C17.6354 33.166 16.9095 32.9316 16.3691 32.6582C15.8353 32.3848 15.4382 32.0592 15.1777 31.6816C14.9238 31.304 14.7969 30.8548 14.7969 30.334C14.7969 29.4681 15.1615 28.7357 15.8906 28.1367C16.6263 27.5378 17.5638 27.2383 18.7031 27.2383C19.901 27.2383 20.8711 27.5475 21.6133 28.166C22.362 28.7845 22.7363 29.5755 22.7363 30.5391H20.9199C20.9199 30.0443 20.7083 29.6178 20.2852 29.2598C19.8685 28.9017 19.3411 28.7227 18.7031 28.7227C18.0456 28.7227 17.5312 28.8659 17.1602 29.1523C16.7891 29.4388 16.6035 29.8132 16.6035 30.2754C16.6035 30.7116 16.776 31.0404 17.1211 31.2617C17.4661 31.4831 18.0879 31.6947 18.9863 31.8965C19.8913 32.0983 20.6237 32.3392 21.1836 32.6191C21.7435 32.8991 22.1569 33.2376 22.4238 33.6348C22.6973 34.0254 22.834 34.5039 22.834 35.0703C22.834 36.0143 22.4564 36.7728 21.7012 37.3457C20.946 37.9121 19.9661 38.1953 18.7617 38.1953C17.9154 38.1953 17.1667 38.0456 16.5156 37.7461C15.8646 37.4466 15.3535 37.0299 14.9824 36.4961C14.6178 35.9557 14.4355 35.373 14.4355 34.748H16.2422C16.2747 35.3535 16.5156 35.8353 16.9648 36.1934C17.4206 36.5449 18.0195 36.7207 18.7617 36.7207C19.4453 36.7207 19.9922 36.584 20.4023 36.3105C20.819 36.0306 21.0273 35.6595 21.0273 35.1973ZM32.1113 38H30.3047V27.4336H32.1113V38ZM30.1582 24.6309C30.1582 24.3379 30.2461 24.0905 30.4219 23.8887C30.6042 23.6868 30.8711 23.5859 31.2227 23.5859C31.5742 23.5859 31.8411 23.6868 32.0234 23.8887C32.2057 24.0905 32.2969 24.3379 32.2969 24.6309C32.2969 24.9238 32.2057 25.168 32.0234 25.3633C31.8411 25.5586 31.5742 25.6562 31.2227 25.6562C30.8711 25.6562 30.6042 25.5586 30.4219 25.3633C30.2461 25.168 30.1582 24.9238 30.1582 24.6309ZM37.4629 24.875V27.4336H39.4355V28.8301H37.4629V35.3828C37.4629 35.806 37.5508 36.125 37.7266 36.3398C37.9023 36.5482 38.2018 36.6523 38.625 36.6523C38.8333 36.6523 39.1198 36.6133 39.4844 36.5352V38C39.0091 38.1302 38.5469 38.1953 38.0977 38.1953C37.2904 38.1953 36.6816 37.9512 36.2715 37.4629C35.8613 36.9746 35.6562 36.2812 35.6562 35.3828V28.8301H33.7324V27.4336H35.6562V24.875H37.4629ZM50.9004 38.1953C49.4681 38.1953 48.3027 37.7266 47.4043 36.7891C46.5059 35.8451 46.0566 34.5853 46.0566 33.0098V32.6777C46.0566 31.6296 46.2552 30.6953 46.6523 29.875C47.056 29.0482 47.6159 28.4036 48.332 27.9414C49.0547 27.4727 49.8359 27.2383 50.6758 27.2383C52.0495 27.2383 53.1172 27.6908 53.8789 28.5957C54.6406 29.5007 55.0215 30.7962 55.0215 32.4824V33.2344H47.8633C47.8893 34.276 48.1921 35.1191 48.7715 35.7637C49.3574 36.4017 50.0996 36.7207 50.998 36.7207C51.6361 36.7207 52.1764 36.5905 52.6191 36.3301C53.0618 36.0697 53.4492 35.7246 53.7812 35.2949L54.8848 36.1543C53.9993 37.515 52.6712 38.1953 50.9004 38.1953ZM50.6758 28.7227C49.9466 28.7227 49.3346 28.9896 48.8398 29.5234C48.3451 30.0508 48.0391 30.793 47.9219 31.75H53.2148V31.6133C53.1628 30.6953 52.9154 29.9857 52.4727 29.4844C52.0299 28.9766 51.431 28.7227 50.6758 28.7227ZM60.666 31.291L63.0098 27.4336H65.1191L61.6621 32.6582L65.2266 38H63.1367L60.6953 34.0449L58.2539 38H56.1543L59.7188 32.6582L56.2617 27.4336H58.3516L60.666 31.291ZM75.9688 32.834C75.9688 34.4421 75.6009 35.7376 74.8652 36.7207C74.1296 37.7038 73.1335 38.1953 71.877 38.1953C70.5944 38.1953 69.5853 37.7884 68.8496 36.9746V42.0625H67.043V27.4336H68.6934L68.7812 28.6055C69.5169 27.694 70.5391 27.2383 71.8477 27.2383C73.1172 27.2383 74.1198 27.7168 74.8555 28.6738C75.5977 29.6309 75.9688 30.9622 75.9688 32.668V32.834ZM74.1621 32.6289C74.1621 31.4375 73.9082 30.4967 73.4004 29.8066C72.8926 29.1165 72.196 28.7715 71.3105 28.7715C70.2168 28.7715 69.3965 29.2565 68.8496 30.2266V35.2754C69.39 36.2389 70.2168 36.7207 71.3301 36.7207C72.196 36.7207 72.8828 36.3789 73.3906 35.6953C73.9049 35.0052 74.1621 33.9831 74.1621 32.6289ZM82.6582 38.1953C81.2259 38.1953 80.0605 37.7266 79.1621 36.7891C78.2637 35.8451 77.8145 34.5853 77.8145 33.0098V32.6777C77.8145 31.6296 78.013 30.6953 78.4102 29.875C78.8138 29.0482 79.3737 28.4036 80.0898 27.9414C80.8125 27.4727 81.5938 27.2383 82.4336 27.2383C83.8073 27.2383 84.875 27.6908 85.6367 28.5957C86.3984 29.5007 86.7793 30.7962 86.7793 32.4824V33.2344H79.6211C79.6471 34.276 79.9499 35.1191 80.5293 35.7637C81.1152 36.4017 81.8574 36.7207 82.7559 36.7207C83.3939 36.7207 83.9342 36.5905 84.377 36.3301C84.8197 36.0697 85.207 35.7246 85.5391 35.2949L86.6426 36.1543C85.7572 37.515 84.429 38.1953 82.6582 38.1953ZM82.4336 28.7227C81.7044 28.7227 81.0924 28.9896 80.5977 29.5234C80.1029 30.0508 79.7969 30.793 79.6797 31.75H84.9727V31.6133C84.9206 30.6953 84.6732 29.9857 84.2305 29.4844C83.7878 28.9766 83.1888 28.7227 82.4336 28.7227ZM90.5879 27.4336L90.6465 28.7617C91.4538 27.7461 92.5085 27.2383 93.8105 27.2383C96.0436 27.2383 97.1699 28.498 97.1895 31.0176V38H95.3828V31.0078C95.3763 30.2461 95.2005 29.6829 94.8555 29.3184C94.5169 28.9538 93.9863 28.7715 93.2637 28.7715C92.6777 28.7715 92.1634 28.9277 91.7207 29.2402C91.278 29.5527 90.9329 29.9629 90.6855 30.4707V38H88.8789V27.4336H90.5879ZM106.066 35.1973C106.066 34.709 105.881 34.3314 105.51 34.0645C105.145 33.791 104.504 33.5566 103.586 33.3613C102.674 33.166 101.949 32.9316 101.408 32.6582C100.874 32.3848 100.477 32.0592 100.217 31.6816C99.9629 31.304 99.8359 30.8548 99.8359 30.334C99.8359 29.4681 100.201 28.7357 100.93 28.1367C101.665 27.5378 102.603 27.2383 103.742 27.2383C104.94 27.2383 105.91 27.5475 106.652 28.166C107.401 28.7845 107.775 29.5755 107.775 30.5391H105.959C105.959 30.0443 105.747 29.6178 105.324 29.2598C104.908 28.9017 104.38 28.7227 103.742 28.7227C103.085 28.7227 102.57 28.8659 102.199 29.1523C101.828 29.4388 101.643 29.8132 101.643 30.2754C101.643 30.7116 101.815 31.0404 102.16 31.2617C102.505 31.4831 103.127 31.6947 104.025 31.8965C104.93 32.0983 105.663 32.3392 106.223 32.6191C106.783 32.8991 107.196 33.2376 107.463 33.6348C107.736 34.0254 107.873 34.5039 107.873 35.0703C107.873 36.0143 107.495 36.7728 106.74 37.3457C105.985 37.9121 105.005 38.1953 103.801 38.1953C102.954 38.1953 102.206 38.0456 101.555 37.7461C100.904 37.4466 100.393 37.0299 100.021 36.4961C99.6569 35.9557 99.4746 35.373 99.4746 34.748H101.281C101.314 35.3535 101.555 35.8353 102.004 36.1934C102.46 36.5449 103.059 36.7207 103.801 36.7207C104.484 36.7207 105.031 36.584 105.441 36.3105C105.858 36.0306 106.066 35.6595 106.066 35.1973ZM112.189 38H110.383V27.4336H112.189V38ZM110.236 24.6309C110.236 24.3379 110.324 24.0905 110.5 23.8887C110.682 23.6868 110.949 23.5859 111.301 23.5859C111.652 23.5859 111.919 23.6868 112.102 23.8887C112.284 24.0905 112.375 24.3379 112.375 24.6309C112.375 24.9238 112.284 25.168 112.102 25.3633C111.919 25.5586 111.652 25.6562 111.301 25.6562C110.949 25.6562 110.682 25.5586 110.5 25.3633C110.324 25.168 110.236 24.9238 110.236 24.6309ZM118.576 35.5488L121.193 27.4336H123.039L119.25 38H117.873L114.045 27.4336H115.891L118.576 35.5488ZM129.025 38.1953C127.593 38.1953 126.428 37.7266 125.529 36.7891C124.631 35.8451 124.182 34.5853 124.182 33.0098V32.6777C124.182 31.6296 124.38 30.6953 124.777 29.875C125.181 29.0482 125.741 28.4036 126.457 27.9414C127.18 27.4727 127.961 27.2383 128.801 27.2383C130.174 27.2383 131.242 27.6908 132.004 28.5957C132.766 29.5007 133.146 30.7962 133.146 32.4824V33.2344H125.988C126.014 34.276 126.317 35.1191 126.896 35.7637C127.482 36.4017 128.225 36.7207 129.123 36.7207C129.761 36.7207 130.301 36.5905 130.744 36.3301C131.187 36.0697 131.574 35.7246 131.906 35.2949L133.01 36.1543C132.124 37.515 130.796 38.1953 129.025 38.1953ZM128.801 28.7227C128.072 28.7227 127.46 28.9896 126.965 29.5234C126.47 30.0508 126.164 30.793 126.047 31.75H131.34V31.6133C131.288 30.6953 131.04 29.9857 130.598 29.4844C130.155 28.9766 129.556 28.7227 128.801 28.7227ZM142.658 24.875V27.4336H144.631V28.8301H142.658V35.3828C142.658 35.806 142.746 36.125 142.922 36.3398C143.098 36.5482 143.397 36.6523 143.82 36.6523C144.029 36.6523 144.315 36.6133 144.68 36.5352V38C144.204 38.1302 143.742 38.1953 143.293 38.1953C142.486 38.1953 141.877 37.9512 141.467 37.4629C141.057 36.9746 140.852 36.2812 140.852 35.3828V28.8301H138.928V27.4336H140.852V24.875H142.658ZM146.076 32.6191C146.076 31.584 146.278 30.653 146.682 29.8262C147.092 28.9993 147.658 28.3613 148.381 27.9121C149.11 27.4629 149.94 27.2383 150.871 27.2383C152.31 27.2383 153.472 27.7363 154.357 28.7324C155.249 29.7285 155.695 31.0534 155.695 32.707V32.834C155.695 33.8626 155.497 34.7871 155.1 35.6074C154.709 36.4212 154.146 37.056 153.41 37.5117C152.681 37.9674 151.841 38.1953 150.891 38.1953C149.458 38.1953 148.296 37.6973 147.404 36.7012C146.519 35.7051 146.076 34.3867 146.076 32.7461V32.6191ZM147.893 32.834C147.893 34.0059 148.163 34.9466 148.703 35.6562C149.25 36.3659 149.979 36.7207 150.891 36.7207C151.809 36.7207 152.538 36.3626 153.078 35.6465C153.618 34.9238 153.889 33.9147 153.889 32.6191C153.889 31.4603 153.612 30.5228 153.059 29.8066C152.512 29.084 151.783 28.7227 150.871 28.7227C149.979 28.7227 149.26 29.0775 148.713 29.7871C148.166 30.4967 147.893 31.5124 147.893 32.834ZM162.443 32.6191C162.443 31.584 162.645 30.653 163.049 29.8262C163.459 28.9993 164.025 28.3613 164.748 27.9121C165.477 27.4629 166.307 27.2383 167.238 27.2383C168.677 27.2383 169.839 27.7363 170.725 28.7324C171.617 29.7285 172.062 31.0534 172.062 32.707V32.834C172.062 33.8626 171.864 34.7871 171.467 35.6074C171.076 36.4212 170.513 37.056 169.777 37.5117C169.048 37.9674 168.208 38.1953 167.258 38.1953C165.826 38.1953 164.663 37.6973 163.771 36.7012C162.886 35.7051 162.443 34.3867 162.443 32.7461V32.6191ZM164.26 32.834C164.26 34.0059 164.53 34.9466 165.07 35.6562C165.617 36.3659 166.346 36.7207 167.258 36.7207C168.176 36.7207 168.905 36.3626 169.445 35.6465C169.986 34.9238 170.256 33.9147 170.256 32.6191C170.256 31.4603 169.979 30.5228 169.426 29.8066C168.879 29.084 168.15 28.7227 167.238 28.7227C166.346 28.7227 165.627 29.0775 165.08 29.7871C164.533 30.4967 164.26 31.5124 164.26 32.834ZM175.217 38V28.8301H173.547V27.4336H175.217V26.3496C175.217 25.2168 175.52 24.3411 176.125 23.7227C176.73 23.1042 177.587 22.7949 178.693 22.7949C179.11 22.7949 179.523 22.8503 179.934 22.9609L179.836 24.4258C179.53 24.3672 179.204 24.3379 178.859 24.3379C178.273 24.3379 177.821 24.5104 177.502 24.8555C177.183 25.194 177.023 25.6823 177.023 26.3203V27.4336H179.279V28.8301H177.023V38H175.217ZM182.17 38V28.8301H180.5V27.4336H182.17V26.3496C182.17 25.2168 182.473 24.3411 183.078 23.7227C183.684 23.1042 184.54 22.7949 185.646 22.7949C186.063 22.7949 186.477 22.8503 186.887 22.9609L186.789 24.4258C186.483 24.3672 186.158 24.3379 185.812 24.3379C185.227 24.3379 184.774 24.5104 184.455 24.8555C184.136 25.194 183.977 25.6823 183.977 26.3203V27.4336H186.232V28.8301H183.977V38H182.17ZM192.385 38.1953C190.952 38.1953 189.787 37.7266 188.889 36.7891C187.99 35.8451 187.541 34.5853 187.541 33.0098V32.6777C187.541 31.6296 187.74 30.6953 188.137 29.875C188.54 29.0482 189.1 28.4036 189.816 27.9414C190.539 27.4727 191.32 27.2383 192.16 27.2383C193.534 27.2383 194.602 27.6908 195.363 28.5957C196.125 29.5007 196.506 30.7962 196.506 32.4824V33.2344H189.348C189.374 34.276 189.676 35.1191 190.256 35.7637C190.842 36.4017 191.584 36.7207 192.482 36.7207C193.12 36.7207 193.661 36.5905 194.104 36.3301C194.546 36.0697 194.934 35.7246 195.266 35.2949L196.369 36.1543C195.484 37.515 194.156 38.1953 192.385 38.1953ZM192.16 28.7227C191.431 28.7227 190.819 28.9896 190.324 29.5234C189.829 30.0508 189.523 30.793 189.406 31.75H194.699V31.6133C194.647 30.6953 194.4 29.9857 193.957 29.4844C193.514 28.9766 192.915 28.7227 192.16 28.7227ZM203.713 29.0547C203.439 29.0091 203.143 28.9863 202.824 28.9863C201.639 28.9863 200.835 29.4909 200.412 30.5V38H198.605V27.4336H200.363L200.393 28.6543C200.985 27.7103 201.825 27.2383 202.912 27.2383C203.264 27.2383 203.531 27.2839 203.713 27.375V29.0547ZM216.496 35.1973C216.496 34.709 216.311 34.3314 215.939 34.0645C215.575 33.791 214.934 33.5566 214.016 33.3613C213.104 33.166 212.378 32.9316 211.838 32.6582C211.304 32.3848 210.907 32.0592 210.646 31.6816C210.393 31.304 210.266 30.8548 210.266 30.334C210.266 29.4681 210.63 28.7357 211.359 28.1367C212.095 27.5378 213.033 27.2383 214.172 27.2383C215.37 27.2383 216.34 27.5475 217.082 28.166C217.831 28.7845 218.205 29.5755 218.205 30.5391H216.389C216.389 30.0443 216.177 29.6178 215.754 29.2598C215.337 28.9017 214.81 28.7227 214.172 28.7227C213.514 28.7227 213 28.8659 212.629 29.1523C212.258 29.4388 212.072 29.8132 212.072 30.2754C212.072 30.7116 212.245 31.0404 212.59 31.2617C212.935 31.4831 213.557 31.6947 214.455 31.8965C215.36 32.0983 216.092 32.3392 216.652 32.6191C217.212 32.8991 217.626 33.2376 217.893 33.6348C218.166 34.0254 218.303 34.5039 218.303 35.0703C218.303 36.0143 217.925 36.7728 217.17 37.3457C216.415 37.9121 215.435 38.1953 214.23 38.1953C213.384 38.1953 212.635 38.0456 211.984 37.7461C211.333 37.4466 210.822 37.0299 210.451 36.4961C210.087 35.9557 209.904 35.373 209.904 34.748H211.711C211.743 35.3535 211.984 35.8353 212.434 36.1934C212.889 36.5449 213.488 36.7207 214.23 36.7207C214.914 36.7207 215.461 36.584 215.871 36.3105C216.288 36.0306 216.496 35.6595 216.496 35.1973ZM227.18 38C227.076 37.7917 226.991 37.4206 226.926 36.8867C226.086 37.7591 225.083 38.1953 223.918 38.1953C222.876 38.1953 222.02 37.9023 221.35 37.3164C220.686 36.724 220.354 35.9753 220.354 35.0703C220.354 33.9701 220.77 33.1172 221.604 32.5117C222.443 31.8997 223.622 31.5938 225.139 31.5938H226.896V30.7637C226.896 30.1322 226.708 29.6309 226.33 29.2598C225.952 28.8822 225.396 28.6934 224.66 28.6934C224.016 28.6934 223.475 28.8561 223.039 29.1816C222.603 29.5072 222.385 29.901 222.385 30.3633H220.568C220.568 29.8359 220.754 29.3281 221.125 28.8398C221.503 28.3451 222.01 27.9544 222.648 27.668C223.293 27.3815 223.999 27.2383 224.768 27.2383C225.985 27.2383 226.939 27.5443 227.629 28.1562C228.319 28.7617 228.677 29.5983 228.703 30.666V35.5293C228.703 36.4993 228.827 37.2708 229.074 37.8438V38H227.18ZM224.182 36.623C224.748 36.623 225.285 36.4766 225.793 36.1836C226.301 35.8906 226.669 35.5098 226.896 35.041V32.873H225.48C223.267 32.873 222.16 33.5208 222.16 34.8164C222.16 35.3828 222.349 35.8255 222.727 36.1445C223.104 36.4635 223.589 36.623 224.182 36.623ZM233.234 27.4336L233.283 28.6055C234.058 27.694 235.103 27.2383 236.418 27.2383C237.896 27.2383 238.902 27.8047 239.436 28.9375C239.787 28.4297 240.243 28.0195 240.803 27.707C241.369 27.3945 242.036 27.2383 242.805 27.2383C245.122 27.2383 246.301 28.4655 246.34 30.9199V38H244.533V31.0273C244.533 30.2721 244.361 29.709 244.016 29.3379C243.671 28.9603 243.091 28.7715 242.277 28.7715C241.607 28.7715 241.05 28.9733 240.607 29.377C240.165 29.7741 239.908 30.3112 239.836 30.9883V38H238.02V31.0762C238.02 29.5397 237.268 28.7715 235.764 28.7715C234.579 28.7715 233.768 29.276 233.332 30.2852V38H231.525V27.4336H233.234ZM253.459 38.1953C252.027 38.1953 250.861 37.7266 249.963 36.7891C249.064 35.8451 248.615 34.5853 248.615 33.0098V32.6777C248.615 31.6296 248.814 30.6953 249.211 29.875C249.615 29.0482 250.174 28.4036 250.891 27.9414C251.613 27.4727 252.395 27.2383 253.234 27.2383C254.608 27.2383 255.676 27.6908 256.438 28.5957C257.199 29.5007 257.58 30.7962 257.58 32.4824V33.2344H250.422C250.448 34.276 250.751 35.1191 251.33 35.7637C251.916 36.4017 252.658 36.7207 253.557 36.7207C254.195 36.7207 254.735 36.5905 255.178 36.3301C255.62 36.0697 256.008 35.7246 256.34 35.2949L257.443 36.1543C256.558 37.515 255.23 38.1953 253.459 38.1953ZM253.234 28.7227C252.505 28.7227 251.893 28.9896 251.398 29.5234C250.904 30.0508 250.598 30.793 250.48 31.75H255.773V31.6133C255.721 30.6953 255.474 29.9857 255.031 29.4844C254.589 28.9766 253.99 28.7227 253.234 28.7227ZM263.439 32.6973H258.674V31.2227H263.439V32.6973ZM264.768 32.6289C264.768 31.0078 265.152 29.7057 265.92 28.7227C266.688 27.7331 267.694 27.2383 268.938 27.2383C270.174 27.2383 271.154 27.6615 271.877 28.5078V23H273.684V38H272.023L271.936 36.8672C271.213 37.7526 270.207 38.1953 268.918 38.1953C267.694 38.1953 266.695 37.694 265.92 36.6914C265.152 35.6888 264.768 34.3802 264.768 32.7656V32.6289ZM266.574 32.834C266.574 34.0319 266.822 34.9694 267.316 35.6465C267.811 36.3236 268.495 36.6621 269.367 36.6621C270.513 36.6621 271.35 36.1478 271.877 35.1191V30.2656C271.337 29.2695 270.507 28.7715 269.387 28.7715C268.501 28.7715 267.811 29.1133 267.316 29.7969C266.822 30.4805 266.574 31.4928 266.574 32.834ZM283.02 38C282.915 37.7917 282.831 37.4206 282.766 36.8867C281.926 37.7591 280.923 38.1953 279.758 38.1953C278.716 38.1953 277.86 37.9023 277.189 37.3164C276.525 36.724 276.193 35.9753 276.193 35.0703C276.193 33.9701 276.61 33.1172 277.443 32.5117C278.283 31.8997 279.462 31.5938 280.979 31.5938H282.736V30.7637C282.736 30.1322 282.548 29.6309 282.17 29.2598C281.792 28.8822 281.236 28.6934 280.5 28.6934C279.855 28.6934 279.315 28.8561 278.879 29.1816C278.443 29.5072 278.225 29.901 278.225 30.3633H276.408C276.408 29.8359 276.594 29.3281 276.965 28.8398C277.342 28.3451 277.85 27.9544 278.488 27.668C279.133 27.3815 279.839 27.2383 280.607 27.2383C281.825 27.2383 282.779 27.5443 283.469 28.1562C284.159 28.7617 284.517 29.5983 284.543 30.666V35.5293C284.543 36.4993 284.667 37.2708 284.914 37.8438V38H283.02ZM280.021 36.623C280.588 36.623 281.125 36.4766 281.633 36.1836C282.141 35.8906 282.508 35.5098 282.736 35.041V32.873H281.32C279.107 32.873 278 33.5208 278 34.8164C278 35.3828 278.189 35.8255 278.566 36.1445C278.944 36.4635 279.429 36.623 280.021 36.623ZM290.676 35.3535L293.137 27.4336H295.07L290.822 39.6309C290.165 41.3887 289.12 42.2676 287.688 42.2676L287.346 42.2383L286.672 42.1113V40.6465L287.16 40.6855C287.772 40.6855 288.247 40.5618 288.586 40.3145C288.931 40.0671 289.214 39.6146 289.436 38.957L289.836 37.8828L286.066 27.4336H288.039L290.676 35.3535ZM301.213 32.6289C301.213 31.0078 301.597 29.7057 302.365 28.7227C303.133 27.7331 304.139 27.2383 305.383 27.2383C306.62 27.2383 307.6 27.6615 308.322 28.5078V23H310.129V38H308.469L308.381 36.8672C307.658 37.7526 306.652 38.1953 305.363 38.1953C304.139 38.1953 303.14 37.694 302.365 36.6914C301.597 35.6888 301.213 34.3802 301.213 32.7656V32.6289ZM303.02 32.834C303.02 34.0319 303.267 34.9694 303.762 35.6465C304.257 36.3236 304.94 36.6621 305.812 36.6621C306.958 36.6621 307.795 36.1478 308.322 35.1191V30.2656C307.782 29.2695 306.952 28.7715 305.832 28.7715C304.947 28.7715 304.257 29.1133 303.762 29.7969C303.267 30.4805 303.02 31.4928 303.02 32.834ZM317.326 38.1953C315.894 38.1953 314.729 37.7266 313.83 36.7891C312.932 35.8451 312.482 34.5853 312.482 33.0098V32.6777C312.482 31.6296 312.681 30.6953 313.078 29.875C313.482 29.0482 314.042 28.4036 314.758 27.9414C315.48 27.4727 316.262 27.2383 317.102 27.2383C318.475 27.2383 319.543 27.6908 320.305 28.5957C321.066 29.5007 321.447 30.7962 321.447 32.4824V33.2344H314.289C314.315 34.276 314.618 35.1191 315.197 35.7637C315.783 36.4017 316.525 36.7207 317.424 36.7207C318.062 36.7207 318.602 36.5905 319.045 36.3301C319.488 36.0697 319.875 35.7246 320.207 35.2949L321.311 36.1543C320.425 37.515 319.097 38.1953 317.326 38.1953ZM317.102 28.7227C316.372 28.7227 315.76 28.9896 315.266 29.5234C314.771 30.0508 314.465 30.793 314.348 31.75H319.641V31.6133C319.589 30.6953 319.341 29.9857 318.898 29.4844C318.456 28.9766 317.857 28.7227 317.102 28.7227ZM325.51 38H323.703V23H325.51V38ZM330.373 38H328.566V27.4336H330.373V38ZM328.42 24.6309C328.42 24.3379 328.508 24.0905 328.684 23.8887C328.866 23.6868 329.133 23.5859 329.484 23.5859C329.836 23.5859 330.103 23.6868 330.285 23.8887C330.467 24.0905 330.559 24.3379 330.559 24.6309C330.559 24.9238 330.467 25.168 330.285 25.3633C330.103 25.5586 329.836 25.6562 329.484 25.6562C329.133 25.6562 328.866 25.5586 328.684 25.3633C328.508 25.168 328.42 24.9238 328.42 24.6309ZM336.76 35.5488L339.377 27.4336H341.223L337.434 38H336.057L332.229 27.4336H334.074L336.76 35.5488ZM347.209 38.1953C345.777 38.1953 344.611 37.7266 343.713 36.7891C342.814 35.8451 342.365 34.5853 342.365 33.0098V32.6777C342.365 31.6296 342.564 30.6953 342.961 29.875C343.365 29.0482 343.924 28.4036 344.641 27.9414C345.363 27.4727 346.145 27.2383 346.984 27.2383C348.358 27.2383 349.426 27.6908 350.188 28.5957C350.949 29.5007 351.33 30.7962 351.33 32.4824V33.2344H344.172C344.198 34.276 344.501 35.1191 345.08 35.7637C345.666 36.4017 346.408 36.7207 347.307 36.7207C347.945 36.7207 348.485 36.5905 348.928 36.3301C349.37 36.0697 349.758 35.7246 350.09 35.2949L351.193 36.1543C350.308 37.515 348.98 38.1953 347.209 38.1953ZM346.984 28.7227C346.255 28.7227 345.643 28.9896 345.148 29.5234C344.654 30.0508 344.348 30.793 344.23 31.75H349.523V31.6133C349.471 30.6953 349.224 29.9857 348.781 29.4844C348.339 28.9766 347.74 28.7227 346.984 28.7227ZM358.537 29.0547C358.264 29.0091 357.967 28.9863 357.648 28.9863C356.464 28.9863 355.66 29.4909 355.236 30.5V38H353.43V27.4336H355.188L355.217 28.6543C355.809 27.7103 356.649 27.2383 357.736 27.2383C358.088 27.2383 358.355 27.2839 358.537 27.375V29.0547ZM363.84 35.3535L366.301 27.4336H368.234L363.986 39.6309C363.329 41.3887 362.284 42.2676 360.852 42.2676L360.51 42.2383L359.836 42.1113V40.6465L360.324 40.6855C360.936 40.6855 361.411 40.5618 361.75 40.3145C362.095 40.0671 362.378 39.6146 362.6 38.957L363 37.8828L359.23 27.4336H361.203L363.84 35.3535ZM371.975 33.9961C371.988 33.2214 372.076 32.6094 372.238 32.1602C372.401 31.7109 372.733 31.2129 373.234 30.666L374.514 29.3477C375.061 28.7292 375.334 28.0651 375.334 27.3555C375.334 26.6719 375.155 26.138 374.797 25.7539C374.439 25.3633 373.918 25.168 373.234 25.168C372.57 25.168 372.036 25.3438 371.633 25.6953C371.229 26.0469 371.027 26.5189 371.027 27.1113H369.221C369.234 26.0566 369.608 25.207 370.344 24.5625C371.086 23.9115 372.049 23.5859 373.234 23.5859C374.465 23.5859 375.422 23.918 376.105 24.582C376.796 25.2396 377.141 26.1445 377.141 27.2969C377.141 28.4362 376.613 29.5592 375.559 30.666L374.494 31.7207C374.019 32.248 373.781 33.0065 373.781 33.9961H371.975ZM371.896 37.0918C371.896 36.7988 371.984 36.5547 372.16 36.3594C372.342 36.1576 372.609 36.0566 372.961 36.0566C373.312 36.0566 373.579 36.1576 373.762 36.3594C373.944 36.5547 374.035 36.7988 374.035 37.0918C374.035 37.3848 373.944 37.6289 373.762 37.8242C373.579 38.013 373.312 38.1074 372.961 38.1074C372.609 38.1074 372.342 38.013 372.16 37.8242C371.984 37.6289 371.896 37.3848 371.896 37.0918Z" fill="black"/>
</g>
<defs>
<clipPath id="clip0_1_391">
<rect width="750" height="73" fill="white"/>
</clipPath>
</defs>
</svg>
